<?xml version="1.0" encoding="UTF-8" standalone="no"?>
<svg
   xmlns:dc="http://purl.org/dc/elements/1.1/"
   xmlns:cc="http://creativecommons.org/ns#"
   xmlns:rdf="http://www.w3.org/1999/02/22-rdf-syntax-ns#"
   xmlns:svg="http://www.w3.org/2000/svg"
   xmlns="http://www.w3.org/2000/svg"
   xmlns:sodipodi="http://sodipodi.sourceforge.net/DTD/sodipodi-0.dtd"
   xmlns:inkscape="http://www.inkscape.org/namespaces/inkscape"
   xml:space="preserve"
   enable-background="new 0 0 195.574 96.744"
   viewBox="0 0 195.574 96.744"
   height="96.744px"
   width="195.574px"
   y="0px"
   x="0px"
   id="Layer_1"
   version="1.1"
   sodipodi:docname="abxy.svg"
   inkscape:version="0.92.2 (5c3e80d, 2017-08-06)"><sodipodi:namedview
     pagecolor="#ffffff"
     bordercolor="#666666"
     borderopacity="1"
     objecttolerance="10"
     gridtolerance="10"
     guidetolerance="10"
     inkscape:pageopacity="0"
     inkscape:pageshadow="2"
     inkscape:window-width="1855"
     inkscape:window-height="1393"
     id="namedview62"
     showgrid="false"
     inkscape:zoom="3.7627574"
     inkscape:cx="140.17525"
     inkscape:cy="57.732647"
     inkscape:window-x="91"
     inkscape:window-y="75"
     inkscape:window-maximized="0"
     inkscape:current-layer="g65" /><metadata
     id="metadata113"><rdf:RDF><cc:Work
         rdf:about=""><dc:format>image/svg+xml</dc:format><dc:type
           rdf:resource="http://purl.org/dc/dcmitype/StillImage" /><dc:title /></cc:Work></rdf:RDF></metadata><defs
     id="defs111" /><g
     id="g38"><g
       id="g9"><g
         id="A_1_"
         style="fill:#676767;fill-opacity:0.80000001"><path
           id="path2"
           d="M23.688,0c13.1,0,23.705,10.606,23.705,23.682c0,13.077-10.605,23.682-23.705,23.682     C10.606,47.364,0,36.759,0,23.682C0,10.606,10.606,0,23.688,0z"
           fill="#141414"
           style="fill:#676767;fill-opacity:0.80000001" /></g><g
         id="g7"
         enable-background="new    "
         style="fill:#cccccc;fill-opacity:1"><path
           id="path5"
           d="M32.448,38.835l-2.778-7.663H17.542l-2.645,7.663H9.416L20.883,8.526h5.583l11.512,30.309H32.448z      M23.658,13.079h-0.129c-0.107,0.847-0.238,1.577-0.45,2.174l-4.137,11.679h9.293l-4.163-11.679     C23.94,14.887,23.789,14.163,23.658,13.079z"
           fill="#39B54A"
           style="fill:#cccccc;fill-opacity:1" /></g></g><g
       id="g18"
       style="fill:#676767;fill-opacity:0.80000001"><g
         id="B_1_"
         style="fill:#676767;fill-opacity:0.80000001"><path
           id="path11"
           d="M73.084,0c13.097,0,23.703,10.61,23.703,23.687S86.181,47.369,73.084,47.369     c-13.085,0-23.69-10.606-23.69-23.683S59.999,0,73.084,0z"
           fill="#141414"
           style="fill:#676767;fill-opacity:0.80000001" /></g><g
         id="g16"
         enable-background="new    "
         style="fill:#cccccc;fill-opacity:1"><path
           id="path14"
           d="M83.288,30.01c0,2.628-0.985,4.783-2.925,6.385c-1.957,1.633-4.47,2.437-7.566,2.437h-9.908V8.53h9.572     c2.898,0,5.194,0.646,6.867,1.884c1.684,1.266,2.523,2.952,2.523,5.089c0,1.646-0.504,3.096-1.5,4.348     c-1.014,1.28-2.322,2.15-3.956,2.67v0.091c2.164,0.274,3.842,1.075,5.069,2.372C82.663,26.311,83.288,27.967,83.288,30.01z      M76.519,16.471c0-1.205-0.454-2.144-1.332-2.795c-0.907-0.649-2.224-0.973-3.979-0.973h-3.277v8.383h3.232     c1.693,0,3.021-0.4,3.955-1.201C76.044,19.084,76.519,17.965,76.519,16.471z M77.953,29.873c0-1.449-0.508-2.585-1.558-3.409     c-1.051-0.814-2.595-1.206-4.674-1.206h-3.79v9.413h4.239c1.801,0,3.212-0.438,4.237-1.308     C77.451,32.508,77.953,31.337,77.953,29.873z"
           fill="#C1272D"
           style="fill:#cccccc;fill-opacity:1" /></g></g><g
       id="g27"><g
         id="Y_1_"
         style="fill:#676767;fill-opacity:0.80000001"><path
           id="path20"
           d="M171.869,0c13.1,0,23.705,10.614,23.705,23.69c0,13.077-10.605,23.682-23.705,23.682     c-13.082,0-23.688-10.605-23.688-23.682C148.181,10.614,158.787,0,171.869,0z"
           fill="#141414"
           style="fill:#676767;fill-opacity:0.80000001" /></g><g
         id="g25"
         enable-background="new    "
         style="fill:#cccccc;fill-opacity:1"><path
           id="path23"
           d="M174.266,27.847v10.987h-4.997V27.97l-9.847-19.436h5.721l6.095,12.646     c0.213,0.411,0.339,0.783,0.438,1.121c0.099,0.336,0.176,0.61,0.256,0.825h0.045c0.151-0.642,0.373-1.275,0.695-1.903     l6.323-12.689h5.319L174.266,27.847z"
           fill="#FCEE21"
           style="fill:#cccccc;fill-opacity:1" /></g></g><g
       id="g36"><g
         id="X_1_"
         style="fill:#676767;fill-opacity:0.80000001"><path
           id="path29"
           d="M122.47,0c13.105,0,23.711,10.61,23.711,23.687s-10.605,23.683-23.711,23.683     c-13.076,0-23.683-10.606-23.683-23.683S109.394,0,122.47,0z"
           fill="#141414"
           style="fill:#676767;fill-opacity:0.80000001" /></g><g
         id="g34"
         enable-background="new    "
         style="fill:#cccccc;fill-opacity:1"><path
           id="path32"
           d="M129.59,38.831l-6.406-11.019c-0.132-0.288-0.242-0.532-0.309-0.763     c-0.049-0.258-0.121-0.502-0.212-0.763h-0.092c-0.116,0.275-0.19,0.523-0.267,0.775c-0.077,0.222-0.187,0.462-0.336,0.75     l-6.523,11.019h-6.123l10.137-15.189L110.2,8.53h6.186l5.401,9.954c0.519,0.885,0.861,1.64,1.048,2.266h0.073     c0.305-0.793,0.537-1.311,0.657-1.56c0.109-0.237,2.209-3.797,6.27-10.66h5.674l-9.459,15.02l9.581,15.281H129.59z"
           fill="#0071BC"
           style="fill:#cccccc;fill-opacity:1" /></g></g><g
       transform="translate(168.21833,-268.63876)"
       id="g4036"><path
         style="fill:none"
         inkscape:connector-curvature="0"
         d="m 106.249,192.642 c 0.541,-0.289 0.941,-0.487 1.155,-0.65 -0.39,0.223 -0.771,0.423 -1.155,0.65 z"
         id="path4030" /><path
         style="fill:none"
         inkscape:connector-curvature="0"
         d="m 642.559,191.966 c 0.214,0.177 0.754,0.435 1.527,0.819 -0.491,-0.271 -1.017,-0.542 -1.527,-0.819 z"
         id="path4032" /><path
         d="m 664.368,213.96 c -3.344,-8.304 -8.445,-13.518 -12.891,-16.797 -3.024,-2.237 -5.735,-3.563 -7.392,-4.378 -0.772,-0.384 -1.313,-0.642 -1.527,-0.819 -33.565,-18.007 -97.459,-38.153 -117.479,-34.305 -26.01,5.024 -65.536,79.714 -88.969,79.714 -15.068,0 -60.496,0 -60.496,0 0,0 -45.428,0 -60.49,0 -23.435,0 -62.966,-74.69 -88.973,-79.714 -19.583,-3.779 -85.589,16.456 -118.749,34.331 -0.214,0.163 -0.614,0.362 -1.155,0.65 -1.761,0.849 -5.067,2.418 -8.698,5.268 -4.194,3.308 -8.812,8.352 -11.911,16.051 -62.749,156.023 -87.379,255.153 -85.543,315.168 2.891,94.416 76.578,101.326 76.578,101.326 37.033,-8.617 111.55,-129.135 168.535,-129.135 31.16,0 129.797,0 129.797,0 0,0 98.637,0 129.797,0 56.985,0 131.502,120.518 168.538,129.135 0,0 73.678,-6.91 76.563,-101.326 1.864,-60.015 -22.81,-159.145 -85.535,-315.169 z"
         id="path4034"
         style="fill:#cccccc"
         inkscape:connector-curvature="0" /></g></g><g
     id="g76"><g
       id="g47"><g
         id="A_2_"><path
           id="path40"
           d="M23.688,49.376c13.1,0,23.705,10.606,23.705,23.682c0,13.077-10.605,23.682-23.705,23.682     C10.606,96.74,0,86.135,0,73.058C0,59.982,10.606,49.376,23.688,49.376z"
           fill="#FFFFFF" /></g><g
         id="g45"
         enable-background="new    "
         style="fill:#676767;fill-opacity:0.80000001"><path
           id="path43"
           d="M32.448,88.211l-2.778-7.663H17.542l-2.645,7.663H9.416l11.467-30.309h5.583l11.512,30.309H32.448z      M23.658,62.455h-0.129c-0.107,0.847-0.238,1.577-0.45,2.174l-4.137,11.679h9.293l-4.163-11.679     C23.94,64.263,23.789,63.539,23.658,62.455z"
           fill="#C64AB5"
           style="fill:#676767;fill-opacity:0.80000001" /></g></g><g
       id="g56"><g
         id="B_2_"><path
           id="path49"
           d="M73.084,49.374c13.097,0,23.703,10.61,23.703,23.687S86.181,96.743,73.084,96.743     c-13.085,0-23.69-10.606-23.69-23.683S59.999,49.374,73.084,49.374z"
           fill="#FFFFFF" /></g><g
         id="g54"
         enable-background="new    "
         style="fill:#676767;fill-opacity:0.80000001"><path
           id="path52"
           d="M83.288,79.383c0,2.628-0.985,4.783-2.925,6.385c-1.957,1.633-4.47,2.437-7.566,2.437h-9.908V57.904     h9.572c2.898,0,5.194,0.646,6.867,1.884c1.684,1.266,2.523,2.952,2.523,5.089c0,1.646-0.504,3.096-1.5,4.348     c-1.014,1.28-2.322,2.15-3.956,2.67v0.091c2.164,0.274,3.842,1.075,5.069,2.372C82.663,75.684,83.288,77.34,83.288,79.383z      M76.519,65.844c0-1.205-0.454-2.144-1.332-2.795c-0.907-0.649-2.224-0.973-3.979-0.973h-3.277v8.383h3.232     c1.693,0,3.021-0.4,3.955-1.201C76.044,68.458,76.519,67.338,76.519,65.844z M77.953,79.247c0-1.449-0.508-2.585-1.558-3.409     c-1.051-0.814-2.595-1.206-4.674-1.206h-3.79v9.413h4.239c1.801,0,3.212-0.438,4.237-1.308     C77.451,81.881,77.953,80.71,77.953,79.247z"
           fill="#3ED8D2"
           style="fill:#676767;fill-opacity:0.80000001" /></g></g><g
       id="g65"><g
         id="Y_2_"><path
           id="path58"
           d="M171.869,49.372c13.1,0,23.705,10.614,23.705,23.69c0,13.077-10.605,23.682-23.705,23.682     c-13.082,0-23.688-10.605-23.688-23.682C148.181,59.986,158.787,49.372,171.869,49.372z"
           fill="#FFFFFF" /></g><g
         id="g63"
         enable-background="new    "
         style="fill:#676767;fill-opacity:0.80000001"><path
           id="path61"
           d="M174.266,77.219v10.987h-4.997V77.342l-9.847-19.436h5.721l6.095,12.646     c0.213,0.411,0.339,0.783,0.438,1.121c0.099,0.336,0.176,0.61,0.256,0.825h0.045c0.151-0.642,0.373-1.275,0.695-1.903     l6.323-12.689h5.319L174.266,77.219z"
           fill="#0311DE"
           style="fill:#676767;fill-opacity:0.80000001" /></g></g><g
       id="g74"><g
         id="X_2_"><path
           id="path67"
           d="M122.47,49.374c13.105,0,23.711,10.61,23.711,23.687s-10.605,23.683-23.711,23.683     c-13.076,0-23.683-10.606-23.683-23.683S109.394,49.374,122.47,49.374z"
           fill="#FFFFFF" /></g><g
         id="g72"
         enable-background="new    "
         style="fill:#676767;fill-opacity:0.80000001"><path
           id="path70"
           d="M129.59,88.205l-6.406-11.019c-0.132-0.288-0.242-0.532-0.309-0.763     c-0.049-0.258-0.121-0.502-0.212-0.763h-0.092c-0.116,0.275-0.19,0.523-0.267,0.775c-0.077,0.222-0.187,0.462-0.336,0.75     l-6.523,11.019h-6.123l10.137-15.189l-9.26-15.111h6.186l5.401,9.954c0.519,0.885,0.861,1.64,1.048,2.266h0.073     c0.305-0.793,0.537-1.311,0.657-1.56c0.109-0.237,2.209-3.797,6.27-10.66h5.674l-9.459,15.02l9.581,15.281H129.59z"
           fill="#FF8E43"
           style="fill:#676767;fill-opacity:0.80000001" /></g></g></g><g
     id="g78" /><g
     id="g80" /><g
     id="g82" /><g
     id="g84" /><g
     id="g86" /><g
     id="g88" /><g
     id="g90" /><g
     id="g92" /><g
     id="g94" /><g
     id="g96" /><g
     id="g98" /><g
     id="g100" /><g
     id="g102" /><g
     id="g104" /><g
     id="g106" /></svg>
