<?xml version="1.0" encoding="utf-8"?>
<!-- Generator: Adobe Illustrator 21.1.0, SVG Export Plug-In . SVG Version: 6.00 Build 0)  -->
<svg version="1.1"
	 id="Layer_1" inkscape:version="0.92.2 (5c3e80d, 2017-08-06)" sodipodi:docname="abxy.svg" xmlns:cc="http://creativecommons.org/ns#" xmlns:dc="http://purl.org/dc/elements/1.1/" xmlns:inkscape="http://www.inkscape.org/namespaces/inkscape" xmlns:rdf="http://www.w3.org/1999/02/22-rdf-syntax-ns#" xmlns:sodipodi="http://sodipodi.sourceforge.net/DTD/sodipodi-0.dtd" xmlns:svg="http://www.w3.org/2000/svg"
	 xmlns="http://www.w3.org/2000/svg" xmlns:xlink="http://www.w3.org/1999/xlink" x="0px" y="0px" width="195.6px" height="96.7px"
	 viewBox="0 0 195.6 96.7" style="enable-background:new 0 0 195.6 96.7;" xml:space="preserve">
<style type="text/css">
	.st0{fill:#CCCCCC;}
	.st1{fill:#323E47;fill-opacity:0.8;}
	.st2{enable-background:new    ;}
	.st3{fill:#1F262D;}
	.st4{fill:#FFFFFF;}
</style>
<g id="g38">
	<g id="g4036" transform="translate(168.21833,-268.63876)">
		<path id="path4034" inkscape:connector-curvature="0" class="st0" d="M664.4,214c-3.3-8.3-8.4-13.5-12.9-16.8
			c-3-2.2-5.7-3.6-7.4-4.4c-0.8-0.4-1.3-0.6-1.5-0.8c-33.6-18-97.5-38.2-117.5-34.3c-26,5-65.5,79.7-89,79.7c-15.1,0-60.5,0-60.5,0
			s-45.4,0-60.5,0c-23.4,0-63-74.7-89-79.7c-19.6-3.8-85.6,16.5-118.7,34.3c-0.2,0.2-0.6,0.4-1.2,0.6c-1.8,0.8-5.1,2.4-8.7,5.3
			c-4.2,3.3-8.8,8.4-11.9,16.1C22.9,370-1.7,469.1,0.1,529.1C3,623.5,76.7,630.5,76.7,630.5c37-8.6,111.6-129.1,168.5-129.1
			c31.2,0,129.8,0,129.8,0s98.6,0,129.8,0c57,0,131.5,120.5,168.5,129.1c0,0,73.7-6.9,76.6-101.3C751.8,469.1,727.1,370,664.4,214
			L664.4,214z"/>
	</g>
</g>
<g id="g38_1_">
	<g id="g9">
		<g id="A_1_">
			<path id="path2" class="st1" d="M24.7,0c13.1,0,23.7,10.6,23.7,23.7S37.8,47.4,24.7,47.4S1,36.8,1,23.7S11.6,0,24.7,0z"/>
		</g>
		<g id="g7" class="st2">
			<path id="path5" class="st3" d="M33.4,38.8l-2.8-7.7H18.5l-2.6,7.7h-5.5L21.9,8.5h5.6L39,38.8H33.4z M24.7,13.1h-0.1
				c-0.1,0.8-0.2,1.6-0.5,2.2L20,27h9.3l-4.2-11.7C24.9,14.9,24.8,14.2,24.7,13.1z"/>
		</g>
	</g>
	<g id="g18">
		<g id="B_1_">
			<path id="path11" class="st1" d="M74.1,0c13.1,0,23.7,10.6,23.7,23.7S87.2,47.4,74.1,47.4S50.4,36.8,50.4,23.7S61,0,74.1,0z"/>
		</g>
		<g id="g16" class="st2">
			<path id="path14" class="st3" d="M84.3,30c0,2.6-1,4.8-2.9,6.4c-2,1.6-4.5,2.4-7.6,2.4h-9.9V8.5h9.6c2.9,0,5.2,0.6,6.9,1.9
				c1.7,1.3,2.5,3,2.5,5.1c0,1.6-0.5,3.1-1.5,4.3c-1,1.3-2.3,2.1-4,2.7v0.1c2.2,0.3,3.8,1.1,5.1,2.4C83.7,26.3,84.3,28,84.3,30z
				 M77.5,16.5c0-1.2-0.5-2.1-1.3-2.8c-0.9-0.6-2.2-1-4-1h-3.3v8.4h3.2c1.7,0,3-0.4,4-1.2C77,19.1,77.5,18,77.5,16.5z M79,29.9
				c0-1.4-0.5-2.6-1.6-3.4s-2.6-1.2-4.7-1.2h-3.8v9.4h4.2c1.8,0,3.2-0.4,4.2-1.3C78.5,32.5,79,31.3,79,29.9z"/>
		</g>
	</g>
	<g id="g27">
		<g id="Y_1_">
			<path id="path20" class="st1" d="M172.9,0c13.1,0,23.7,10.6,23.7,23.7S186,47.4,172.9,47.4c-13.1,0-23.7-10.6-23.7-23.7
				S159.8,0,172.9,0z"/>
		</g>
		<g id="g25" class="st2">
			<path id="path23" class="st3" d="M175.3,27.8v11h-5V28l-9.8-19.4h5.7l6.1,12.6c0.2,0.4,0.3,0.8,0.4,1.1c0.1,0.3,0.2,0.6,0.3,0.8
				l0,0c0.2-0.6,0.4-1.3,0.7-1.9L180,8.5h5.3L175.3,27.8z"/>
		</g>
	</g>
	<g id="g36">
		<g id="X_1_">
			<path id="path29" class="st1" d="M123.5,0c13.1,0,23.7,10.6,23.7,23.7s-10.6,23.7-23.7,23.7S99.8,36.8,99.8,23.7S110.4,0,123.5,0
				z"/>
		</g>
		<g id="g34" class="st2">
			<path id="path32" class="st3" d="M130.6,38.8l-6.4-11c-0.1-0.3-0.2-0.5-0.3-0.8c0-0.3-0.1-0.5-0.2-0.8h-0.1
				c-0.1,0.3-0.2,0.5-0.3,0.8c-0.1,0.2-0.2,0.5-0.3,0.8l-6.5,11h-6.1l10.1-15.2l-9.3-15.1h6.2l5.4,10c0.5,0.9,0.9,1.6,1,2.3h0.1
				c0.3-0.8,0.5-1.3,0.7-1.6c0.1-0.2,2.2-3.8,6.3-10.7h5.7l-9.5,15l9.6,15.3C136.7,38.8,130.6,38.8,130.6,38.8z"/>
		</g>
	</g>
</g>
<g id="g76">
	<g id="g47">
		<g id="A_2_">
			<path id="path40" class="st4" d="M24.7,49.4c13.1,0,23.7,10.6,23.7,23.7S37.8,96.8,24.7,96.8C11.6,96.7,1,86.1,1,73.1
				C1,60,11.6,49.4,24.7,49.4z"/>
		</g>
		<g id="g45" class="st2">
			<path id="path43" class="st1" d="M33.4,88.2l-2.8-7.7H18.5l-2.6,7.7h-5.5l11.5-30.3h5.6L39,88.2H33.4z M24.7,62.5h-0.1
				c-0.1,0.8-0.2,1.6-0.5,2.2L20,76.4h9.3l-4.2-11.7C24.9,64.3,24.8,63.5,24.7,62.5z"/>
		</g>
	</g>
	<g id="g56">
		<g id="B_2_">
			<path id="path49" class="st4" d="M74.1,49.4c13.1,0,23.7,10.6,23.7,23.7S87.2,96.7,74.1,96.7S50.4,86.1,50.4,73
				S61,49.4,74.1,49.4z"/>
		</g>
		<g id="g54" class="st2">
			<path id="path52" class="st1" d="M84.3,79.4c0,2.6-1,4.8-2.9,6.4c-2,1.6-4.5,2.4-7.6,2.4h-9.9V57.9h9.6c2.9,0,5.2,0.6,6.9,1.9
				c1.7,1.3,2.5,3,2.5,5.1c0,1.6-0.5,3.1-1.5,4.3c-1,1.3-2.3,2.2-4,2.7V72c2.2,0.3,3.8,1.1,5.1,2.4C83.7,75.7,84.3,77.3,84.3,79.4z
				 M77.5,65.8c0-1.2-0.5-2.1-1.3-2.8c-0.9-0.6-2.2-1-4-1h-3.3v8.4h3.2c1.7,0,3-0.4,4-1.2C77,68.5,77.5,67.3,77.5,65.8z M79,79.2
				c0-1.4-0.5-2.6-1.6-3.4s-2.6-1.2-4.7-1.2h-3.8V84h4.2c1.8,0,3.2-0.4,4.2-1.3C78.5,81.9,79,80.7,79,79.2z"/>
		</g>
	</g>
	<g id="g65">
		<g id="Y_2_">
			<path id="path58" class="st4" d="M172.9,49.4c13.1,0,23.7,10.6,23.7,23.7S186,96.8,172.9,96.8c-13.1,0-23.7-10.6-23.7-23.7
				S159.8,49.4,172.9,49.4z"/>
		</g>
		<g id="g63" class="st2">
			<path id="path61" class="st1" d="M175.3,77.2v11h-5V77.3l-9.8-19.4h5.7l6.1,12.6c0.2,0.4,0.3,0.8,0.4,1.1
				c0.1,0.3,0.2,0.6,0.3,0.8l0,0c0.2-0.6,0.4-1.3,0.7-1.9l6.3-12.7h5.3L175.3,77.2z"/>
		</g>
	</g>
	<g id="g74">
		<g id="X_2_">
			<path id="path67" class="st4" d="M123.5,49.4c13.1,0,23.7,10.6,23.7,23.7s-10.6,23.7-23.7,23.7S99.8,86.2,99.8,73.1
				S110.4,49.4,123.5,49.4z"/>
		</g>
		<g id="g72" class="st2">
			<path id="path70" class="st1" d="M130.6,88.2l-6.4-11c-0.1-0.3-0.2-0.5-0.3-0.8c0-0.3-0.1-0.5-0.2-0.8h-0.1
				c-0.1,0.3-0.2,0.5-0.3,0.8c-0.1,0.2-0.2,0.5-0.3,0.8l-6.5,11h-6.1L120.5,73l-9.3-15.1h6.2l5.4,10c0.5,0.9,0.9,1.6,1,2.3h0.1
				c0.3-0.8,0.5-1.3,0.7-1.6c0.1-0.2,2.2-3.8,6.3-10.7h5.7l-9.5,15l9.6,15.3L130.6,88.2L130.6,88.2z"/>
		</g>
	</g>
</g>
</svg>
