<svg id="Layer_1" data-name="Layer 1" xmlns="http://www.w3.org/2000/svg" width="195.57" height="96.74" viewBox="0 0 195.57 96.74"><defs><style>.cls-1{fill:#323e47;fill-opacity:0.8;}.cls-2{isolation:isolate;}.cls-3{fill:#fff;}</style></defs><title>abxy</title><g id="g38"><g id="g9"><g id="A"><path id="path2" class="cls-1" d="M23.69,0A23.68,23.68,0,1,1,0,23.68,23.69,23.69,0,0,1,23.69,0Z"/></g><g id="g7" class="cls-2"><path id="path5" d="M32.45,38.83l-2.78-7.66H17.54L14.9,38.83H9.42L20.88,8.53h5.58L38,38.83ZM23.66,13.08h-.13a10.67,10.67,0,0,1-.45,2.17L18.94,26.93h9.29L24.07,15.25A11.41,11.41,0,0,1,23.66,13.08Z"/></g></g><g id="g18"><g id="B"><path id="path11" class="cls-1" d="M73.08,0A23.68,23.68,0,1,1,49.39,23.69,23.69,23.69,0,0,1,73.08,0Z"/></g><g id="g16" class="cls-2"><path id="path14" d="M83.29,30a7.91,7.91,0,0,1-2.93,6.39,11.39,11.39,0,0,1-7.57,2.44H62.89V8.53h9.57a11.33,11.33,0,0,1,6.87,1.88,6,6,0,0,1,2.52,5.09,6.79,6.79,0,0,1-1.5,4.35,8,8,0,0,1-4,2.67v.09A8.11,8.11,0,0,1,81.46,25,7.2,7.2,0,0,1,83.29,30ZM76.52,16.47a3.29,3.29,0,0,0-1.33-2.8,6.78,6.78,0,0,0-4-1H67.93v8.38h3.23a5.91,5.91,0,0,0,4-1.2A4.25,4.25,0,0,0,76.52,16.47ZM78,29.87a4.08,4.08,0,0,0-1.56-3.41,7.52,7.52,0,0,0-4.67-1.21H67.93v9.41h4.24a6.34,6.34,0,0,0,4.24-1.31A4.27,4.27,0,0,0,78,29.87Z"/></g></g><g id="g27"><g id="Y"><path id="path20" class="cls-1" d="M171.87,0a23.69,23.69,0,1,1-23.69,23.69A23.7,23.7,0,0,1,171.87,0Z"/></g><g id="g25" class="cls-2"><path id="path23" d="M174.27,27.85v11h-5V28L159.42,8.53h5.72l6.1,12.65a6.05,6.05,0,0,1,.44,1.12c.1.34.18.61.26.83h0a8.3,8.3,0,0,1,.7-1.9L179,8.53h5.32Z"/></g></g><g id="g36"><g id="X"><path id="path29" class="cls-1" d="M122.47,0A23.69,23.69,0,1,1,98.79,23.69,23.7,23.7,0,0,1,122.47,0Z"/></g><g id="g34" class="cls-2"><path id="path32" d="M129.59,38.83l-6.41-11a5.79,5.79,0,0,1-.31-.76,5.28,5.28,0,0,0-.21-.76h-.09a7.62,7.62,0,0,0-.27.77,5.78,5.78,0,0,1-.34.75l-6.52,11h-6.12l10.14-15.19L110.2,8.53h6.19l5.4,10a10.69,10.69,0,0,1,1,2.27h.07c.31-.79.54-1.31.66-1.56s2.21-3.8,6.27-10.66h5.67l-9.46,15,9.58,15.28Z"/></g></g></g><g id="g76"><g id="g47"><g id="A-2" data-name="A"><path id="path40" class="cls-3" d="M23.69,49.38A23.68,23.68,0,1,1,0,73.06,23.69,23.69,0,0,1,23.69,49.38Z"/></g><g id="g45" class="cls-2"><path id="path43" class="cls-1" d="M32.45,88.21l-2.78-7.66H17.54L14.9,88.21H9.42L20.88,57.9h5.58L38,88.21ZM23.66,62.46h-.13a10.67,10.67,0,0,1-.45,2.17L18.94,76.31h9.29L24.07,64.63A11.41,11.41,0,0,1,23.66,62.46Z"/></g></g><g id="g56"><g id="B-2" data-name="B"><path id="path49" class="cls-3" d="M73.08,49.37A23.68,23.68,0,1,1,49.39,73.06,23.69,23.69,0,0,1,73.08,49.37Z"/></g><g id="g54" class="cls-2"><path id="path52" class="cls-1" d="M83.29,79.38a7.91,7.91,0,0,1-2.93,6.39,11.39,11.39,0,0,1-7.57,2.44H62.89V57.9h9.57a11.33,11.33,0,0,1,6.87,1.88,6,6,0,0,1,2.52,5.09,6.79,6.79,0,0,1-1.5,4.35,8,8,0,0,1-4,2.67V72a8.11,8.11,0,0,1,5.07,2.37A7.19,7.19,0,0,1,83.29,79.38ZM76.52,65.84A3.29,3.29,0,0,0,75.19,63a6.78,6.78,0,0,0-4-1H67.93v8.38h3.23a5.91,5.91,0,0,0,4-1.2A4.25,4.25,0,0,0,76.52,65.84ZM78,79.25a4.08,4.08,0,0,0-1.56-3.41,7.52,7.52,0,0,0-4.67-1.21H67.93V84h4.24a6.34,6.34,0,0,0,4.24-1.31A4.27,4.27,0,0,0,78,79.25Z"/></g></g><g id="g65"><g id="Y-2" data-name="Y"><path id="path58" class="cls-3" d="M171.87,49.37a23.69,23.69,0,1,1-23.69,23.69A23.7,23.7,0,0,1,171.87,49.37Z"/></g><g id="g63" class="cls-2"><path id="path61" class="cls-1" d="M174.27,77.22v11h-5V77.34l-9.85-19.44h5.72l6.1,12.65a6.05,6.05,0,0,1,.44,1.12c.1.34.18.61.26.82h0a8.3,8.3,0,0,1,.7-1.9L179,57.91h5.32Z"/></g></g><g id="g74"><g id="X-2" data-name="X"><path id="path67" class="cls-3" d="M122.47,49.37A23.69,23.69,0,1,1,98.79,73.06,23.7,23.7,0,0,1,122.47,49.37Z"/></g><g id="g72" class="cls-2"><path id="path70" class="cls-1" d="M129.59,88.21l-6.41-11a5.79,5.79,0,0,1-.31-.76,5.28,5.28,0,0,0-.21-.76h-.09a7.62,7.62,0,0,0-.27.78,5.78,5.78,0,0,1-.34.75l-6.52,11h-6.12L119.46,73,110.2,57.9h6.19l5.4,10a10.69,10.69,0,0,1,1,2.27h.07c.31-.79.54-1.31.66-1.56s2.21-3.8,6.27-10.66h5.67l-9.46,15,9.58,15.28Z"/></g></g></g></svg>